# xmcd
#
# Track frame offsets:
#	182
#	14102
#	29175
#	48220
#	59700
#	73562
#	84817
#	99175
#	113232
#	127142
#
# Disc length: 1897 seconds
#
# Revision: 4
# Processed by: cddbd v1.5.2PL0 Copyright (c) Steve Scherf et al.
# Submitted via: EZCDAudioConverter 6.0.7.1
#
DISCID=8b07670a
DTITLE=Patty Loveless - Greatest Hits
DYEAR=1993
DGENRE=Country
TTITLE0=If My Heart Had Windows
TTITLE1=Blue Side Of Town
TTITLE2=Don't Toss Us Away
TTITLE3=Timber I'm Falling In Love
TTITLE4=The Lonely Side Of Love
TTITLE5=Chains
TTITLE6=On Down The Line
TTITLE7=I'm That Kind Of Girl
TTITLE8=Hurt Me Bad (In A Real Good Way)
TTITLE9=Jealous Bone
EXTD=
EXTT0=
EXTT1=
EXTT2=
EXTT3=
EXTT4=
EXTT5=
EXTT6=
EXTT7=
EXTT8=
EXTT9=
PLAYORDER=
